<svg id="Group_89411" data-name="Group 89411" xmlns="http://www.w3.org/2000/svg" width="13.228" height="14.42" viewBox="0 0 13.228 14.42">
  <path id="Path_160958" data-name="Path 160958" d="M8.149,6.572a.907.907,0,0,1,0,1.277L1.54,14.157a.906.906,0,0,1-1.277,0A.884.884,0,0,1,.3,12.881L5.257,8.111a1.094,1.094,0,0,0,0-1.8L.263,1.54A.9.9,0,0,1,1.54.263Z" transform="translate(8.412 14.42) rotate(180)" fill="#111827"/>
  <path id="Path_160959" data-name="Path 160959" d="M8.149,6.572a.907.907,0,0,1,0,1.277L1.54,14.157a.906.906,0,0,1-1.277,0A.884.884,0,0,1,.3,12.881L5.257,8.111a1.094,1.094,0,0,0,0-1.8L.263,1.54A.9.9,0,0,1,1.54.263Z" transform="translate(13.228 14.42) rotate(180)" fill="#111827"/>
</svg>
