<svg width="24" height="24" viewBox="0 0 24 24" fill="none" xmlns="http://www.w3.org/2000/svg">
<path fill-rule="evenodd" clip-rule="evenodd" d="M24 8.01414V1H0V8.01414H24ZM14.9591 4.50797C14.9757 4.75297 14.8942 4.99461 14.7324 5.18028C14.5706 5.36595 14.3414 5.48053 14.0949 5.49937H9.90699C9.66734 5.46451 9.4483 5.34517 9.28993 5.16321C9.13156 4.98125 9.04444 4.74891 9.04444 4.50842C9.04444 4.26792 9.13156 4.03536 9.28993 3.85339C9.4483 3.67143 9.66734 3.5521 9.90699 3.51724H14.0949C14.3409 3.53631 14.5695 3.65086 14.7311 3.8361C14.8927 4.02135 14.9743 4.26252 14.9582 4.50707L14.9591 4.50797Z" fill="black"/>
<path fill-rule="evenodd" clip-rule="evenodd" d="M24 15.5853V8.64844H0V15.5853H24ZM14.9591 12.116C14.9757 12.361 14.8942 12.6026 14.7324 12.7883C14.5706 12.974 14.3414 13.0888 14.0949 13.1076H9.90699C9.66691 13.0735 9.44727 12.9543 9.2884 12.7724C9.12954 12.5904 9.04207 12.3577 9.04207 12.1169C9.04207 11.8761 9.12954 11.6434 9.2884 11.4614C9.44727 11.2795 9.66691 11.1605 9.90699 11.1264H14.0949C14.3409 11.1455 14.5695 11.26 14.7311 11.4452C14.8927 11.6305 14.9752 11.8714 14.9591 12.116Z" fill="black"/>
<path fill-rule="evenodd" clip-rule="evenodd" d="M24 23.2318V16.2168H0V23.2318H24ZM14.0939 18.7331C14.334 18.7673 14.5536 18.8864 14.7125 19.0684C14.8714 19.2504 14.9588 19.4831 14.9588 19.7239C14.9588 19.9647 14.8714 20.1974 14.7125 20.3793C14.5536 20.5613 14.334 20.6802 14.0939 20.7144H9.90602C9.66595 20.6802 9.44637 20.5613 9.2875 20.3793C9.12863 20.1974 9.04116 19.9647 9.04116 19.7239C9.04116 19.4831 9.12863 19.2504 9.2875 19.0684C9.44637 18.8864 9.66595 18.7673 9.90602 18.7331H14.0939Z" fill="black"/>
</svg>
