<svg xmlns="http://www.w3.org/2000/svg" width="11.619" height="15.87" viewBox="0 0 11.619 15.87">
  <g id="Group_89546" data-name="Group 89546" transform="translate(-1.271 0.033)">
    <g id="Group_89485" data-name="Group 89485">
      <path id="Path_160964" data-name="Path 160964" d="M1.077,3.437,9.331,1.27c.228-.06.364.076.3.3a.806.806,0,0,1-.521.521L.86,4.262c-.228.06-.364-.076-.3-.3A.806.806,0,0,1,1.077,3.437Z" transform="translate(0 5.903) rotate(-45)" fill="#fff"/>
      <path id="Path_160963" data-name="Path 160963" d="M.184,0,8.438,2.165a.806.806,0,0,1,.521.521c.06.228-.076.364-.3.3L.4.824A.559.559,0,0,1,.018.355C-.041.127-.044-.061.184,0Z" transform="translate(3.416 7.368) rotate(45)" fill="#fff"/>
    </g>
    <g id="Group_89486" data-name="Group 89486" transform="translate(3.043)">
      <path id="Path_160965" data-name="Path 160965" d="M1.077,3.437,9.331,1.27c.228-.06.364.076.3.3a.806.806,0,0,1-.521.521L.86,4.262c-.228.06-.364-.076-.3-.3A.806.806,0,0,1,1.077,3.437Z" transform="translate(0 5.903) rotate(-45)" fill="#fff"/>
      <path id="Path_160963-2" data-name="Path 160963" d="M.184,0,8.438,2.165a.806.806,0,0,1,.521.521c.06.228-.076.364-.3.3L.4.824A.559.559,0,0,1,.018.355C-.041.127-.044-.061.184,0Z" transform="translate(3.416 7.368) rotate(45)" fill="#fff"/>
    </g>
  </g>
</svg>
