<svg width="24" height="24" viewBox="0 0 24 24" fill="none" xmlns="http://www.w3.org/2000/svg">
<path d="M1 7.06888H23.09V1H1V7.06888ZM16.8938 3.15582H18.8107C19.0792 3.15582 19.3368 3.25802 19.5267 3.43995C19.7166 3.62187 19.8233 3.86863 19.8233 4.12591C19.8233 4.38319 19.7166 4.62991 19.5267 4.81183C19.3368 4.99376 19.0792 5.09597 18.8107 5.09597H16.8938C16.6252 5.09597 16.3677 4.99376 16.1778 4.81183C15.9879 4.62991 15.8812 4.38319 15.8812 4.12591C15.8812 3.86863 15.9879 3.62187 16.1778 3.43995C16.3677 3.25802 16.6252 3.15582 16.8938 3.15582ZM11.087 3.15582H13.003C13.2715 3.15582 13.5291 3.25802 13.719 3.43995C13.9089 3.62187 14.0156 3.86863 14.0156 4.12591C14.0156 4.38319 13.9089 4.62991 13.719 4.81183C13.5291 4.99376 13.2715 5.09597 13.003 5.09597H11.087C10.8185 5.09597 10.5609 4.99376 10.371 4.81183C10.1811 4.62991 10.0744 4.38319 10.0744 4.12591C10.0744 3.86863 10.1811 3.62187 10.371 3.43995C10.5609 3.25802 10.8185 3.15582 11.087 3.15582ZM5.28121 3.15582H7.19527C7.46383 3.15582 7.72138 3.25802 7.91128 3.43995C8.10118 3.62187 8.20787 3.86863 8.20787 4.12591C8.20787 4.38319 8.10118 4.62991 7.91128 4.81183C7.72138 4.99376 7.46383 5.09597 7.19527 5.09597H5.28121C5.01266 5.09597 4.7551 4.99376 4.5652 4.81183C4.3753 4.62991 4.26862 4.38319 4.26862 4.12591C4.26862 3.86863 4.3753 3.62187 4.5652 3.43995C4.7551 3.25802 5.01266 3.15582 5.28121 3.15582Z" fill="#111827"/>
<path fill-rule="evenodd" clip-rule="evenodd" d="M1 23.0001V8.25781H23.09V23.0001H1ZM15.9876 9.87218H7.18957C7.06312 9.86834 6.93715 9.88888 6.81914 9.93259C6.70114 9.97629 6.59351 10.0423 6.50264 10.1266C6.41178 10.2109 6.33953 10.3119 6.29019 10.4235C6.24084 10.5351 6.21542 10.6551 6.21542 10.7763C6.21542 10.8975 6.24084 11.0175 6.29019 11.1291C6.33953 11.2407 6.41178 11.3416 6.50264 11.426C6.59351 11.5103 6.70114 11.5763 6.81914 11.62C6.93715 11.6637 7.06312 11.6842 7.18957 11.6804H15.9876C16.114 11.6842 16.24 11.6637 16.358 11.62C16.476 11.5763 16.5836 11.5103 16.6745 11.426C16.7654 11.3416 16.8376 11.2407 16.887 11.1291C16.9363 11.0175 16.9617 10.8975 16.9617 10.7763C16.9617 10.6551 16.9363 10.5351 16.887 10.4235C16.8376 10.3119 16.7654 10.2109 16.6745 10.1266C16.5836 10.0423 16.476 9.97629 16.358 9.93259C16.24 9.88888 16.114 9.86834 15.9876 9.87218Z" fill="#111827"/>
</svg>
