<svg id="corner" xmlns="http://www.w3.org/2000/svg" width="63.217" height="63.217" viewBox="0 0 63.217 63.217">
  <g id="Group_89632" data-name="Group 89632">
    <g id="Group_89631" data-name="Group 89631">
      <path id="Path_161063" data-name="Path 161063" d="M21.731,128H0v47.413H47.413V153.682A25.711,25.711,0,0,0,21.731,128Zm17.731,39.462H7.951v-31.51h13.78a17.762,17.762,0,0,1,17.731,17.731Z" transform="translate(0 -112.196)"/>
      <path id="Path_161064" data-name="Path 161064" d="M163.683,7.424a31.3,31.3,0,0,1,13.465,3.933l1.8-3.211a34.985,34.985,0,0,0-15.268-4.4V0H160V11.048h3.683Z" transform="translate(-137.292)"/>
      <path id="Path_161065" data-name="Path 161065" d="M421.692,204.083a34.985,34.985,0,0,0-4.294-15.075l-3.222,1.784a31.262,31.262,0,0,1,3.834,13.29h-3.624v3.683h11.048v-3.683Z" transform="translate(-362.217 -167.257)"/>
      <path id="Path_161066" data-name="Path 161066" d="M339.652,91.378a35.241,35.241,0,0,0-3.023-2.434l-2.149,2.988a31.91,31.91,0,0,1,2.709,2.182Z" transform="translate(-291.692 -78.709)"/>
      <path id="Path_161067" data-name="Path 161067" d="M382.047,134.032l-2.751,2.449a31.338,31.338,0,0,1,2.162,2.721l3.007-2.13A35.85,35.85,0,0,0,382.047,134.032Z" transform="translate(-331.351 -118.607)"/>
    </g>
  </g>
</svg>
