<svg width="64" height="64" viewBox="0 0 64 64" fill="none" xmlns="http://www.w3.org/2000/svg">
<g clip-path="url(#clip0_440_5230)">
<path d="M21.731 15.8047H0V63.2177H47.413V41.4867C47.4053 34.6778 44.6971 28.1499 39.8824 23.3353C35.0678 18.5206 28.5399 15.8124 21.731 15.8047ZM39.462 55.2667H7.951V23.7567H21.731C26.431 23.7649 30.9362 25.6356 34.2597 28.959C37.5831 32.2825 39.4538 36.7877 39.462 41.4877V55.2667Z" fill="white"/>
<path d="M26.391 7.424C31.1191 7.6994 35.723 9.04417 39.856 11.357L41.656 8.146C36.9715 5.52772 31.7474 4.02223 26.388 3.746V0H22.708V11.048H26.391V7.424Z" fill="white"/>
<path d="M59.475 36.825C59.2023 31.5399 57.7341 26.3855 55.181 21.75L51.959 23.534C54.2133 27.6222 55.5234 32.1633 55.793 36.824H52.169V40.507H63.217V36.824L59.475 36.825Z" fill="white"/>
<path d="M47.9601 12.6684C46.9979 11.8021 45.9887 10.9896 44.9371 10.2344L42.7881 13.2224C43.7301 13.8999 44.6344 14.6283 45.4971 15.4044L47.9601 12.6684Z" fill="white"/>
<path d="M50.6963 15.4258L47.9453 17.8748C48.7158 18.7411 49.4375 19.6495 50.1073 20.5958L53.1143 18.4658C52.3638 17.4095 51.5567 16.3947 50.6963 15.4258Z" fill="white"/>
</g>
<defs>
<clipPath id="clip0_440_5230">
<rect width="63.217" height="63.217" fill="white"/>
</clipPath>
</defs>
</svg>
