<svg width="24" height="24" viewBox="0 0 24 24" fill="none" xmlns="http://www.w3.org/2000/svg">
<g clip-path="url(#clip0_440_5201)">
<path fill-rule="evenodd" clip-rule="evenodd" d="M11.6582 0V24H0V0H11.6582ZM8.75744 10.2552V13.7448C8.75744 14.0471 8.87757 14.3371 9.09139 14.551C9.3052 14.7648 9.59521 14.8849 9.89759 14.8849C10.2 14.8849 10.4899 14.7648 10.7038 14.551C10.9176 14.3371 11.0377 14.0471 11.0377 13.7448V10.2552C11.0377 9.95282 10.9176 9.66285 10.7038 9.44904C10.4899 9.23522 10.2 9.11509 9.89759 9.11509C9.59521 9.11509 9.3052 9.23522 9.09139 9.44904C8.87757 9.66285 8.75744 9.95282 8.75744 10.2552ZM12.3399 24V0H23.998V24H12.3399ZM13.0038 10.2552V13.7448C13.0038 14.0471 13.1239 14.3371 13.3377 14.551C13.5515 14.7648 13.8415 14.8849 14.1439 14.8849C14.4463 14.8849 14.7363 14.7648 14.9501 14.551C15.1639 14.3371 15.2841 14.0471 15.2841 13.7448V10.2552C15.2841 9.95282 15.1639 9.66285 14.9501 9.44904C14.7363 9.23522 14.4463 9.11509 14.1439 9.11509C13.8415 9.11509 13.5515 9.23522 13.3377 9.44904C13.1239 9.66285 13.0038 9.95282 13.0038 10.2552Z" fill="white"/>
</g>
<defs>
<clipPath id="clip0_440_5201">
<rect width="24" height="24" fill="white"/>
</clipPath>
</defs>
</svg>
