<svg width="26" height="25" viewBox="0 0 26 25" fill="none" xmlns="http://www.w3.org/2000/svg">
<g clip-path="url(#clip0_440_5225)">
<path fill-rule="evenodd" clip-rule="evenodd" d="M25.909 7.62598V0H0V7.62598H25.909ZM16.149 3.81396C16.1669 4.08034 16.079 4.34305 15.9042 4.54492C15.7295 4.74679 15.4822 4.87136 15.216 4.89185H10.695C10.4363 4.85395 10.1998 4.7242 10.0289 4.52637C9.8579 4.32853 9.76385 4.07592 9.76385 3.81445C9.76385 3.55298 9.8579 3.30013 10.0289 3.10229C10.1998 2.90446 10.4363 2.77472 10.695 2.73682H15.216C15.4816 2.75755 15.7284 2.8821 15.9028 3.0835C16.0773 3.2849 16.1654 3.54711 16.148 3.81299L16.149 3.81396Z" fill="white"/>
<path fill-rule="evenodd" clip-rule="evenodd" d="M25.909 15.8545V8.3125H0V15.8545H25.909ZM16.149 12.0825C16.1669 12.3489 16.079 12.6116 15.9042 12.8135C15.7295 13.0153 15.4822 13.1402 15.216 13.1606H10.695C10.4358 13.1235 10.1987 12.994 10.0272 12.7961C9.85572 12.5983 9.76129 12.3453 9.76129 12.0835C9.76129 11.8217 9.85572 11.5687 10.0272 11.3708C10.1987 11.173 10.4358 11.0437 10.695 11.0066H15.216C15.4816 11.0273 15.7284 11.1519 15.9028 11.3533C16.0773 11.5547 16.1664 11.8166 16.149 12.0825Z" fill="white"/>
<path fill-rule="evenodd" clip-rule="evenodd" d="M25.909 24.1699V16.543H0V24.1699H25.909ZM15.215 19.2788C15.4741 19.3159 15.7112 19.4455 15.8828 19.6433C16.0543 19.8411 16.1487 20.0941 16.1487 20.356C16.1487 20.6178 16.0543 20.8708 15.8828 21.0686C15.7112 21.2664 15.4741 21.3957 15.215 21.4329H10.694C10.4348 21.3957 10.1977 21.2664 10.0262 21.0686C9.85474 20.8708 9.76031 20.6178 9.76031 20.356C9.76031 20.0941 9.85474 19.8411 10.0262 19.6433C10.1977 19.4455 10.4348 19.3159 10.694 19.2788H15.215Z" fill="white"/>
</g>
<defs>
<clipPath id="clip0_440_5225">
<rect width="25.909" height="24.171" fill="white"/>
</clipPath>
</defs>
</svg>
