<svg xmlns="http://www.w3.org/2000/svg" width="25.909" height="24.171" viewBox="0 0 25.909 24.171">
  <g id="Group_89429" data-name="Group 89429" transform="translate(-474 -240)">
    <path id="Path_160943" data-name="Path 160943" d="M660.669,2223.976v-7.626H634.76v7.626Zm-9.76-3.812a1.013,1.013,0,0,1-.933,1.078h-4.521a1.089,1.089,0,0,1,0-2.155h4.521A1.013,1.013,0,0,1,650.908,2220.163Z" transform="translate(-160.76 -1976.35)" fill-rule="evenodd"/>
    <path id="Path_160944" data-name="Path 160944" d="M660.669,2635.512v-7.542H634.76v7.542Zm-9.76-3.772a1.013,1.013,0,0,1-.933,1.078h-4.521a1.088,1.088,0,0,1,0-2.154h4.521A1.013,1.013,0,0,1,650.908,2631.74Z" transform="translate(-160.76 -2379.656)" fill-rule="evenodd"/>
    <path id="Path_160945" data-name="Path 160945" d="M660.669,3043.687v-7.627H634.76v7.627Zm-10.694-4.891a1.088,1.088,0,0,1,0,2.154h-4.521a1.088,1.088,0,0,1,0-2.154Z" transform="translate(-160.76 -2779.516)" fill-rule="evenodd"/>
  </g>
</svg>
