<svg width="24" height="24" viewBox="0 0 24 24" fill="none" xmlns="http://www.w3.org/2000/svg">
<path d="M0 21.4941C0.000490202 22.0288 0.213024 22.5414 0.590975 22.9195C0.968927 23.2976 1.48143 23.5104 2.01606 23.5111H21.9839C22.5186 23.5104 23.0311 23.2976 23.409 22.9195C23.787 22.5414 23.9995 22.0288 24 21.4941V3.01699C23.9995 2.48236 23.787 1.96976 23.409 1.59163C23.0311 1.21351 22.5186 1.00074 21.9839 1H2.01699C1.48236 1.00074 0.969854 1.21351 0.591902 1.59163C0.21395 1.96976 0.00141707 2.48236 0.000926872 3.01699L0 21.4941ZM19.1424 17.5676C19.2171 17.6113 19.2824 17.6693 19.3346 17.7382C19.3869 17.8072 19.425 17.8858 19.4467 17.9696C19.4685 18.0533 19.4735 18.1405 19.4615 18.2262C19.4494 18.3118 19.4206 18.3943 19.3766 18.4688C19.3326 18.5433 19.2743 18.6084 19.2051 18.6603C19.1359 18.7122 19.0571 18.7499 18.9733 18.7713C18.8895 18.7927 18.8022 18.7973 18.7166 18.7849C18.631 18.7724 18.5487 18.7432 18.4744 18.6989L16.8428 17.7335V19.6291C16.8428 19.8033 16.7736 19.9704 16.6504 20.0936C16.5272 20.2168 16.3601 20.286 16.1859 20.286C16.0117 20.286 15.8446 20.2168 15.7214 20.0936C15.5982 19.9704 15.529 19.8033 15.529 19.6291V17.7335L13.8975 18.6989C13.7475 18.7865 13.5689 18.8112 13.4008 18.7675C13.2327 18.7238 13.0887 18.6153 13.0004 18.4657C12.9121 18.3162 12.8866 18.1377 12.9295 17.9694C12.9725 17.8011 13.0803 17.6566 13.2295 17.5676L14.8972 16.5818L13.2295 15.596C13.0803 15.507 12.9725 15.3626 12.9295 15.1943C12.8866 15.026 12.9121 14.8475 13.0004 14.6979C13.0887 14.5484 13.2327 14.4399 13.4008 14.3962C13.5689 14.3525 13.7475 14.3772 13.8975 14.4648L15.529 15.4302V13.5337C15.529 13.3594 15.5982 13.1924 15.7214 13.0692C15.8446 12.946 16.0117 12.8768 16.1859 12.8768C16.3601 12.8768 16.5272 12.946 16.6504 13.0692C16.7736 13.1924 16.8428 13.3594 16.8428 13.5337V15.4293L18.4744 14.4639C18.6243 14.3762 18.8029 14.3516 18.971 14.3953C19.1391 14.4389 19.2831 14.5474 19.3714 14.697C19.4597 14.8466 19.4852 15.025 19.4423 15.1934C19.3994 15.3617 19.2915 15.5061 19.1424 15.5951L17.4747 16.5809L19.1424 17.5676ZM11.7304 3.35145H20.6359C20.8101 3.35145 20.9772 3.42066 21.1004 3.54385C21.2236 3.66704 21.2928 3.83412 21.2928 4.00834C21.2928 4.18256 21.2236 4.34964 21.1004 4.47283C20.9772 4.59602 20.8101 4.66522 20.6359 4.66522H11.7359C11.5617 4.66522 11.3946 4.59602 11.2715 4.47283C11.1483 4.34964 11.0791 4.18256 11.0791 4.00834C11.0791 3.83412 11.1483 3.66704 11.2715 3.54385C11.3946 3.42066 11.5617 3.35145 11.7359 3.35145H11.7304ZM11.7304 6.03829H20.6359C20.7222 6.03829 20.8076 6.05529 20.8873 6.0883C20.967 6.12131 21.0394 6.16969 21.1004 6.23069C21.1614 6.29169 21.2098 6.3641 21.2428 6.4438C21.2758 6.5235 21.2928 6.60892 21.2928 6.69518C21.2928 6.78145 21.2758 6.86686 21.2428 6.94656C21.2098 7.02626 21.1614 7.09867 21.1004 7.15967C21.0394 7.22067 20.967 7.26905 20.8873 7.30207C20.8076 7.33508 20.7222 7.35207 20.6359 7.35207H11.7359C11.6497 7.35207 11.5643 7.33508 11.4846 7.30207C11.4049 7.26905 11.3325 7.22067 11.2715 7.15967C11.2105 7.09867 11.1621 7.02626 11.1291 6.94656C11.0961 6.86686 11.0791 6.78145 11.0791 6.69518C11.0791 6.60892 11.0961 6.5235 11.1291 6.4438C11.1621 6.3641 11.2105 6.29169 11.2715 6.23069C11.3325 6.16969 11.4049 6.12131 11.4846 6.0883C11.5643 6.05529 11.6497 6.03829 11.7359 6.03829H11.7304ZM1.32304 6.59419C1.32304 6.06982 1.53135 5.56693 1.90213 5.19614C2.27292 4.82535 2.77581 4.61705 3.30019 4.61705C3.82456 4.61705 4.32745 4.82535 4.69824 5.19614C5.06903 5.56693 5.27733 6.06982 5.27733 6.59419V17.9151C5.27733 18.4394 5.06903 18.9423 4.69824 19.3131C4.32745 19.6839 3.82456 19.8922 3.30019 19.8922C2.77581 19.8922 2.27292 19.6839 1.90213 19.3131C1.53135 18.9423 1.32304 18.4394 1.32304 17.9151V6.59605V6.59419Z" fill="white"/>
</svg>
