<svg width="700" height="800" viewBox="0 0 700 800" fill="none" xmlns="http://www.w3.org/2000/svg">
<g clip-path="url(#clip0_440_5189)">
<path fill-rule="evenodd" clip-rule="evenodd" d="M294.569 1.20312V44.8809C140.437 61.229 18.7163 180.318 1.24134 331.357H282.441V213.154C282.441 175.945 312.8 145.637 349.999 145.637C387.198 145.637 417.517 175.956 417.517 213.154V331.357H698.757C681.278 180.323 559.558 61.2301 405.429 44.8809V1.20312H294.569ZM11.8214 358.092C5.33764 358.092 -0.953 364.151 0.12025 371.447L60.9738 785.447C62.0457 792.743 66.1931 798.801 72.6769 798.801H647.052C653.535 798.801 658.022 792.798 658.753 785.447L699.939 371.447C700.671 364.096 694.718 358.092 688.236 358.092H417.517V515.285C443.124 535.742 458.354 566.689 458.394 599.703C458.394 599.708 458.394 599.714 458.394 599.719C458.391 659.435 409.716 708.11 349.999 708.113C290.283 708.11 241.608 659.435 241.605 599.719C241.605 599.714 241.605 599.708 241.605 599.703C241.648 566.712 256.861 535.785 282.441 515.33V358.092L11.8214 358.092ZM316.782 372.783V550.658C301.389 561.466 292.215 579.088 292.191 597.896C292.192 629.822 318.073 655.703 349.999 655.705C381.925 655.705 407.806 629.822 407.808 597.896C407.786 579.075 398.602 561.442 383.193 550.635V372.783H316.782Z" fill="white"/>
</g>
<defs>
<clipPath id="clip0_440_5189">
<rect width="700" height="800" fill="white"/>
</clipPath>
</defs>
</svg>
