<?xml version="1.0" encoding="UTF-8" standalone="no"?>
<!-- Created with Inkscape (http://www.inkscape.org/) -->

<svg
   xmlns:dc="http://purl.org/dc/elements/1.1/"
   xmlns:cc="http://creativecommons.org/ns#"
   xmlns:rdf="http://www.w3.org/1999/02/22-rdf-syntax-ns#"
   xmlns:svg="http://www.w3.org/2000/svg"
   xmlns="http://www.w3.org/2000/svg"
   xmlns:sodipodi="http://sodipodi.sourceforge.net/DTD/sodipodi-0.dtd"
   xmlns:inkscape="http://www.inkscape.org/namespaces/inkscape"
   width="700"
   height="800"
   viewBox="0 0 700.00001 800.00001"
   id="svg4645"
   version="1.1"
   inkscape:version="0.91 r13725"
   sodipodi:docname="kamado_thermo_icon.svg">
  <defs
     id="defs4647" />
  <sodipodi:namedview
     id="base"
     pagecolor="#ffffff"
     bordercolor="#666666"
     borderopacity="1.0"
     inkscape:pageopacity="0.0"
     inkscape:pageshadow="2"
     inkscape:zoom="0.24748737"
     inkscape:cx="-129.96862"
     inkscape:cy="760.084"
     inkscape:document-units="px"
     inkscape:current-layer="layer1"
     showgrid="false"
     units="px"
     inkscape:window-width="1280"
     inkscape:window-height="723"
     inkscape:window-x="0"
     inkscape:window-y="25"
     inkscape:window-maximized="1" />
  <metadata
     id="metadata4650">
    <rdf:RDF>
      <cc:Work
         rdf:about="">
        <dc:format>image/svg+xml</dc:format>
        <dc:type
           rdf:resource="http://purl.org/dc/dcmitype/StillImage" />
        <dc:title></dc:title>
      </cc:Work>
    </rdf:RDF>
  </metadata>
  <g
     inkscape:label="Layer 1"
     inkscape:groupmode="layer"
     id="layer1"
     transform="translate(0,-252.36214)">
    <path
       style="color:#000000;clip-rule:nonzero;display:inline;overflow:visible;visibility:visible;opacity:1;isolation:auto;mix-blend-mode:normal;color-interpolation:sRGB;color-interpolation-filters:linearRGB;solid-color:#000000;solid-opacity:1;fill:#000000;fill-opacity:1;fill-rule:evenodd;stroke:#006fdf;stroke-width:0;stroke-linecap:round;stroke-linejoin:round;stroke-miterlimit:4;stroke-dasharray:none;stroke-dashoffset:0;stroke-opacity:1;marker:none;color-rendering:auto;image-rendering:auto;shape-rendering:auto;text-rendering:auto;enable-background:accumulate"
       d="m 294.56955,253.56332 0,43.67773 C 140.43715,313.58923 18.71637,432.67867 1.2414308,583.71761 l 281.1992192,0 0,-118.20312 c 0,-37.2097 30.3598,-67.51758 67.55859,-67.51758 37.1988,0 67.51758,30.3188 67.51758,67.51758 l 0,118.20312 281.24023,0 C 681.27797,432.6835 559.55789,313.59028 405.42893,297.24105 l 0,-43.67773 -110.85938,0 z M 11.821509,610.45198 c -6.4837807,0 -12.77442191,6.05924 -11.70117191,13.35547 L 60.973852,1037.8075 c 1.07192,7.2962 5.219325,13.3535 11.703125,13.3535 l 574.374993,0 c 6.48354,0 10.96966,-6.0023 11.70118,-13.3535 l 41.18554,-414.00005 c 0.73232,-7.35121 -5.22037,-13.35547 -11.70312,-13.35547 l -270.71875,0 0,157.19337 c 25.60696,20.45733 40.83765,51.40413 40.87695,84.41797 a 12.397537,12.397537 0 0 1 0,0.0156 c -0.003,59.71656 -48.67808,108.39155 -108.39453,108.39455 -59.71653,-0.003 -108.39153,-48.6781 -108.39453,-108.39453 a 12.397537,12.397537 0 0 1 0,-0.0156 c 0.043,-32.99068 15.25675,-63.91763 40.83594,-84.37305 l 0,-157.23829 -270.619141,0 z m 304.960931,14.69141 0,177.87501 c -15.39331,10.80813 -24.56727,28.42956 -24.59179,47.23828 10e-4,31.92593 25.88268,57.80698 57.80859,57.80859 31.9259,0 57.80702,-25.88266 57.80859,-57.80859 -0.0222,-18.82175 -9.20569,-36.45402 -24.61523,-47.26172 l 0,-177.85157 -66.41016,0 z"
       id="rect4610"
       inkscape:connector-curvature="0" />
    <path
       style="color:#000000;clip-rule:nonzero;display:inline;overflow:visible;visibility:visible;opacity:1;isolation:auto;mix-blend-mode:normal;color-interpolation:sRGB;color-interpolation-filters:linearRGB;solid-color:#000000;solid-opacity:1;fill:#000000;fill-opacity:1;fill-rule:evenodd;stroke:#006fdf;stroke-width:0;stroke-linecap:round;stroke-linejoin:round;stroke-miterlimit:4;stroke-dasharray:none;stroke-dashoffset:0;stroke-opacity:1;marker:none;color-rendering:auto;image-rendering:auto;shape-rendering:auto;text-rendering:auto;enable-background:accumulate"
       d="m -1406.5268,253.56343 0,43.56196 c -154.6767,15.87592 -276.9622,135.17697 -294.4806,286.59124 l 697.5175,0 C -1020.9255,433.058 -1142.0846,314.17945 -1295.6693,297.36208 l 0,-43.79865 -110.8575,0 z m -282.7475,356.8891 c -6.4837,0 -12.7756,6.05857 -11.7024,13.35481 l 60.8527,413.99866 c 1.0719,7.2963 5.2186,13.3549 11.7024,13.3549 l 574.3746,0 c 6.4836,0 10.9709,-6.0037 11.7025,-13.3549 l 41.1864,-413.99866 c 0.7323,-7.35121 -5.2197,-13.35481 -11.7025,-13.35481 l -676.4137,0 z"
       id="path5215"
       inkscape:connector-curvature="0" />
  </g>
</svg>
