<svg width="27" height="38" viewBox="0 0 27 38" fill="none" xmlns="http://www.w3.org/2000/svg">
<g clip-path="url(#clip0_440_5203)">
<path d="M9.61523 0H15.6692V15.135H9.61523V0Z" fill="white"/>
<path d="M20.4257 4.68338H18.2637V1.08337C18.2633 0.98844 18.2816 0.894361 18.3177 0.806539C18.3538 0.718717 18.4068 0.63888 18.4738 0.57161C18.5408 0.504341 18.6204 0.450965 18.7081 0.414544C18.7957 0.378123 18.8897 0.359374 18.9847 0.359375H19.7057C19.8969 0.359375 20.0803 0.435337 20.2155 0.570551C20.3507 0.705765 20.4267 0.889154 20.4267 1.08038L20.4257 4.68338Z" fill="white"/>
<path d="M20.4253 5.045H18.2633C18.1678 5.045 18.0763 5.00707 18.0088 4.93956C17.9413 4.87204 17.9033 4.78048 17.9033 4.685V1.085C17.9029 0.942742 17.9306 0.801802 17.9847 0.670246C18.0389 0.538691 18.1184 0.419102 18.2188 0.318324C18.3192 0.217546 18.4385 0.137558 18.5699 0.0829358C18.7012 0.0283139 18.8421 0.000130931 18.9843 0H19.7033C19.9899 0.000264774 20.2647 0.114241 20.4674 0.31691C20.6701 0.519579 20.7841 0.794382 20.7843 1.081V4.681C20.7849 4.72853 20.776 4.77569 20.7582 4.81976C20.7404 4.86384 20.714 4.90395 20.6807 4.93779C20.6473 4.97163 20.6075 4.99853 20.5637 5.01693C20.5199 5.03533 20.4729 5.04487 20.4253 5.045ZM18.6253 4.324H20.0663V1.081C20.0661 0.985603 20.028 0.894189 19.9606 0.826733C19.8931 0.759277 19.8017 0.721264 19.7063 0.721H18.9853C18.8899 0.721264 18.7985 0.759277 18.7311 0.826733C18.6636 0.894189 18.6256 0.985603 18.6253 1.081V4.324Z" fill="white"/>
<path d="M20.4253 7.20722H18.2633C18.1678 7.20722 18.0763 7.16929 18.0088 7.10178C17.9412 7.03426 17.9033 6.9427 17.9033 6.84722V4.68422C17.9033 4.58874 17.9412 4.49717 18.0088 4.42966C18.0763 4.36215 18.1678 4.32422 18.2633 4.32422H20.4253C20.5208 4.32422 20.6124 4.36215 20.6799 4.42966C20.7474 4.49717 20.7853 4.58874 20.7853 4.68422V6.84622C20.7855 6.89358 20.7762 6.9405 20.7582 6.98429C20.7402 7.02808 20.7137 7.06789 20.6802 7.10142C20.6468 7.13496 20.6071 7.16157 20.5633 7.17972C20.5196 7.19787 20.4727 7.20722 20.4253 7.20722ZM18.6253 6.48622H20.0663V5.04522H18.6243L18.6253 6.48622Z" fill="white"/>
<path d="M12.0652 6.84375V9.33075H4.60516V10.9888H2.11816V8.50175C2.11803 8.28398 2.16083 8.06832 2.2441 7.86711C2.32738 7.66589 2.4495 7.48306 2.60349 7.32907C2.75747 7.17509 2.9403 7.05297 3.14152 6.96969C3.34274 6.88641 3.5584 6.84362 3.77617 6.84375H12.0652Z" fill="white"/>
<path d="M4.85938 4.68338H7.02138V1.08337C7.02177 0.98844 7.00341 0.894361 6.96736 0.806539C6.9313 0.718717 6.87825 0.63888 6.81126 0.57161C6.74427 0.504341 6.66466 0.450965 6.57698 0.414544C6.48931 0.378123 6.39531 0.359374 6.30037 0.359375H5.57937C5.38833 0.35964 5.2052 0.435719 5.0702 0.570904C4.9352 0.706089 4.85937 0.889327 4.85938 1.08038V4.68338Z" fill="white"/>
<path d="M7.02103 5.045H4.85903C4.76355 5.045 4.67198 5.00707 4.60447 4.93956C4.53696 4.87204 4.49903 4.78048 4.49903 4.685V1.085C4.49863 0.942742 4.52629 0.801802 4.58043 0.670246C4.63457 0.538691 4.71412 0.419102 4.81452 0.318324C4.91493 0.217546 5.03422 0.137558 5.16558 0.0829358C5.29693 0.0283139 5.43777 0.000130931 5.58003 0H6.29903C6.58564 0.000264774 6.86045 0.114241 7.06312 0.31691C7.26579 0.519579 7.37976 0.794382 7.38003 1.081V4.681C7.38056 4.72853 7.37167 4.77569 7.35387 4.81976C7.33608 4.86384 7.30974 4.90395 7.27636 4.93779C7.24299 4.97163 7.20324 4.99853 7.15942 5.01693C7.11559 5.03533 7.06856 5.04487 7.02103 5.045ZM5.22103 4.324H6.66203V1.081C6.66203 0.985522 6.6241 0.893955 6.55659 0.826442C6.48907 0.758929 6.39751 0.721 6.30203 0.721H5.58103C5.48555 0.721 5.39398 0.758929 5.32647 0.826442C5.25896 0.893955 5.22103 0.985522 5.22103 1.081V4.324Z" fill="white"/>
<path d="M7.02102 7.20722H4.85902C4.76355 7.20722 4.67198 7.16929 4.60447 7.10178C4.53695 7.03426 4.49902 6.9427 4.49902 6.84722V4.68422C4.49902 4.58874 4.53695 4.49717 4.60447 4.42966C4.67198 4.36215 4.76355 4.32422 4.85902 4.32422H7.02102C7.1165 4.32422 7.20807 4.36215 7.27558 4.42966C7.34309 4.49717 7.38102 4.58874 7.38102 4.68422V6.84622C7.38115 6.89358 7.37194 6.9405 7.35391 6.98429C7.33588 7.02808 7.30938 7.06789 7.27594 7.10142C7.24249 7.13496 7.20276 7.16157 7.15902 7.17972C7.11528 7.19787 7.06838 7.20722 7.02102 7.20722ZM5.22102 6.48622H6.66202V5.04522H5.22002L5.22102 6.48622Z" fill="white"/>
<path fill-rule="evenodd" clip-rule="evenodd" d="M13.492 15.1328V37.4248H0V15.1328H13.492ZM9.866 25.5128V29.0448C9.866 29.3509 9.98759 29.6444 10.204 29.8608C10.4204 30.0772 10.714 30.1988 11.02 30.1988C11.3261 30.1988 11.6196 30.0772 11.836 29.8608C12.0524 29.6444 12.174 29.3509 12.174 29.0448V25.5128C12.174 25.2067 12.0524 24.9132 11.836 24.6968C11.6196 24.4804 11.3261 24.3588 11.02 24.3588C10.714 24.3588 10.4204 24.4804 10.204 24.6968C9.98759 24.9132 9.866 25.2067 9.866 25.5128ZM13.492 37.4248V15.1328H26.292V37.4248H13.492ZM14.164 25.5128V29.0448C14.164 29.3509 14.2856 29.6444 14.502 29.8608C14.7184 30.0772 15.0119 30.1988 15.318 30.1988C15.6241 30.1988 15.9176 30.0772 16.134 29.8608C16.3504 29.6444 16.472 29.3509 16.472 29.0448V25.5128C16.472 25.2067 16.3504 24.9132 16.134 24.6968C15.9176 24.4804 15.6241 24.3588 15.318 24.3588C15.0119 24.3588 14.7184 24.4804 14.502 24.6968C14.2856 24.9132 14.164 25.2067 14.164 25.5128Z" fill="white"/>
<path d="M13.1191 6.84375V9.33075H20.5791V10.9888H23.0661V8.50175C23.0663 8.28398 23.0235 8.06832 22.9402 7.86711C22.8569 7.66589 22.7348 7.48306 22.5808 7.32907C22.4268 7.17509 22.244 7.05297 22.0428 6.96969C21.8416 6.88641 21.6259 6.84362 21.4081 6.84375H13.1191Z" fill="white"/>
</g>
<defs>
<clipPath id="clip0_440_5203">
<rect width="26.294" height="37.428" fill="white"/>
</clipPath>
</defs>
</svg>
