<svg width="19" height="26" viewBox="0 0 19 26" fill="none" xmlns="http://www.w3.org/2000/svg">
<g clip-path="url(#clip0_440_5181)">
<path d="M11.2721 4.34135V4.27734H6.89707V4.34135C4.92879 4.83174 3.18079 5.9657 1.93066 7.56313C0.680543 9.16057 -1.74968e-05 11.1299 -0.00292969 13.1583V22.3493C-0.00292969 22.5437 0.0742973 22.7302 0.211761 22.8677C0.349226 23.0051 0.535668 23.0823 0.730072 23.0823H2.99607L2.24807 23.7383C2.11378 23.8695 2.0349 24.0471 2.02771 24.2347C2.02052 24.4223 2.08555 24.6054 2.2094 24.7465C2.33326 24.8875 2.50649 24.9757 2.69341 24.9927C2.88033 25.0098 3.06668 24.9546 3.21407 24.8383L5.22107 23.0793H17.4361C17.5323 23.0793 17.6276 23.0604 17.7166 23.0236C17.8055 22.9867 17.8863 22.9327 17.9544 22.8647C18.0224 22.7966 18.0764 22.7158 18.1133 22.6269C18.1501 22.5379 18.1691 22.4426 18.1691 22.3463V13.1593C18.1665 11.1311 17.4865 9.16188 16.237 7.56429C14.9874 5.9667 13.24 4.83235 11.2721 4.34135ZM13.4301 19.7153H9.06607L9.56607 19.2733H9.62707C9.82147 19.2733 10.0079 19.1961 10.1454 19.0587C10.2828 18.9212 10.3601 18.7347 10.3601 18.5403C10.3601 18.3459 10.2828 18.1595 10.1454 18.022C10.0079 17.8846 9.82147 17.8073 9.62707 17.8073H8.24907C8.11183 17.807 7.97727 17.8453 7.86074 17.9178C7.74421 17.9903 7.65041 18.0941 7.59004 18.2173C7.52967 18.3406 7.50516 18.4783 7.51931 18.6148C7.53346 18.7513 7.5857 18.8811 7.67007 18.9893L6.84107 19.7153H4.74107C4.61138 19.7153 4.487 19.6638 4.39529 19.5721C4.30359 19.4804 4.25207 19.356 4.25207 19.2263C4.25207 19.0967 4.30359 18.9723 4.39529 18.8806C4.487 18.7889 4.61138 18.7373 4.74107 18.7373H5.58207V15.4473C5.58207 15.2999 5.64065 15.1585 5.74492 15.0542C5.84919 14.9499 5.99061 14.8913 6.13807 14.8913H12.0381C12.1855 14.8913 12.327 14.9499 12.4312 15.0542C12.5355 15.1585 12.5941 15.2999 12.5941 15.4473V18.7333H13.4351C13.4993 18.7333 13.5629 18.746 13.6222 18.7706C13.6815 18.7951 13.7354 18.8312 13.7808 18.8766C13.8263 18.922 13.8623 18.9759 13.8868 19.0352C13.9114 19.0945 13.9241 19.1581 13.9241 19.2223C13.9241 19.2866 13.9114 19.3501 13.8868 19.4095C13.8623 19.4688 13.8263 19.5227 13.7808 19.5681C13.7354 19.6135 13.6815 19.6496 13.6222 19.6741C13.5629 19.6987 13.4993 19.7113 13.4351 19.7113L13.4301 19.7153Z" fill="white"/>
<path d="M10.5395 0H7.63046C7.43606 0 7.24962 0.0772266 7.11215 0.214691C6.97469 0.352155 6.89746 0.538596 6.89746 0.733V3.3H11.2725V0.733C11.2725 0.538596 11.1952 0.352155 11.0578 0.214691C10.9203 0.0772266 10.7339 0 10.5395 0Z" fill="white"/>
</g>
<defs>
<clipPath id="clip0_440_5181">
<rect width="18.169" height="25.025" fill="white"/>
</clipPath>
</defs>
</svg>
