<svg width="64" height="64" viewBox="0 0 64 64" fill="none" xmlns="http://www.w3.org/2000/svg">
<g clip-path="url(#clip0_440_5193)">
<path d="M45.5202 51.1088C45.704 50.9416 45.8329 50.7227 45.8899 50.4809C45.9469 50.2391 45.9293 49.9856 45.8394 49.754C45.7496 49.5224 45.5917 49.3234 45.3866 49.1832C45.1814 49.043 44.9386 48.9683 44.6902 48.9688C44.383 48.9668 44.0865 49.0811 43.8602 49.2888C40.7202 52.1588 42.4102 55.0388 43.5202 56.9388C44.7202 58.9988 45.2402 60.0488 43.8102 61.4988C43.6953 61.612 43.6049 61.7477 43.5447 61.8974C43.4845 62.0471 43.4557 62.2075 43.4602 62.3688C43.4597 62.5313 43.4923 62.6922 43.5559 62.8418C43.6195 62.9913 43.7128 63.1264 43.8302 63.2388C44.0638 63.4665 44.3781 63.5922 44.7043 63.5885C45.0305 63.5848 45.3419 63.4518 45.5702 63.2188C48.3702 60.3588 46.8002 57.6588 45.6502 55.6888C44.4302 53.6288 43.9202 52.5688 45.5202 51.1088Z" fill="white"/>
<path d="M32.9303 51.1088C33.1142 50.9416 33.243 50.7227 33.3 50.4809C33.357 50.2391 33.3394 49.9856 33.2496 49.754C33.1597 49.5224 33.0019 49.3234 32.7967 49.1832C32.5916 49.043 32.3488 48.9683 32.1003 48.9688C31.7932 48.9668 31.4967 49.0811 31.2703 49.2888C28.1303 52.1588 29.8203 55.0388 30.9303 56.9388C32.1303 58.9988 32.6503 60.0488 31.2203 61.4988C31.1054 61.612 31.0151 61.7477 30.9549 61.8974C30.8947 62.0471 30.8659 62.2075 30.8703 62.3688C30.8699 62.5313 30.9024 62.6922 30.966 62.8418C31.0296 62.9913 31.123 63.1264 31.2403 63.2388C31.4739 63.4665 31.7883 63.5922 32.1145 63.5885C32.4407 63.5848 32.752 63.4518 32.9803 63.2188C35.7803 60.3588 34.2103 57.6588 33.0603 55.6888C31.8403 53.6288 31.3303 52.5688 32.9303 51.1088Z" fill="white"/>
<path d="M20.3503 51.1088C20.5341 50.9416 20.663 50.7227 20.7199 50.4809C20.7769 50.2391 20.7593 49.9856 20.6695 49.754C20.5797 49.5224 20.4218 49.3234 20.2166 49.1832C20.0115 49.043 19.7687 48.9683 19.5203 48.9688C19.2131 48.9668 18.9166 49.0811 18.6903 49.2888C15.5503 52.1588 17.2403 55.0388 18.3503 56.9388C19.5503 58.9988 20.0703 60.0488 18.6403 61.4988C18.5254 61.612 18.435 61.7477 18.3748 61.8974C18.3146 62.0471 18.2858 62.2075 18.2903 62.3688C18.2898 62.5313 18.3224 62.6922 18.386 62.8418C18.4496 62.9913 18.5429 63.1264 18.6603 63.2388C18.8938 63.4665 19.2082 63.5922 19.5344 63.5885C19.8606 63.5848 20.172 63.4518 20.4003 63.2188C23.2003 60.3588 21.6303 57.6588 20.4803 55.6888C19.2603 53.6288 18.7503 52.5688 20.3503 51.1088Z" fill="white"/>
<path d="M62.68 35.4414H1.33002C1.15587 35.4403 0.983207 35.4735 0.821961 35.5393C0.660715 35.6051 0.51407 35.7021 0.390462 35.8248C0.266854 35.9475 0.168723 36.0934 0.101716 36.2541C0.0347083 36.4149 0.00014641 36.5873 1.86189e-05 36.7614V45.0214C-0.000909345 45.1964 0.0328586 45.3697 0.0993687 45.5315C0.165879 45.6933 0.263811 45.8403 0.387498 45.964C0.511185 46.0877 0.658172 46.1856 0.819954 46.2521C0.981736 46.3186 1.1551 46.3524 1.33002 46.3514H62.67C62.8442 46.3513 63.0166 46.3168 63.1773 46.2498C63.3381 46.1827 63.484 46.0846 63.6067 45.961C63.7293 45.8374 63.8264 45.6908 63.8922 45.5295C63.9579 45.3683 63.9912 45.1956 63.99 45.0214V36.7614C63.9927 36.5882 63.9607 36.4162 63.8959 36.2555C63.8312 36.0948 63.7349 35.9486 63.6129 35.8257C63.4909 35.7027 63.3455 35.6054 63.1853 35.5394C63.025 35.4734 62.8533 35.4401 62.68 35.4414ZM7.14002 43.1014C6.70151 43.1024 6.27257 42.9732 5.90755 42.7302C5.54253 42.4872 5.25786 42.1413 5.08959 41.7364C4.92132 41.3315 4.87703 40.8857 4.96234 40.4556C5.04765 40.0254 5.25871 39.6303 5.56878 39.3202C5.87886 39.0101 6.27399 38.7991 6.70412 38.7138C7.13426 38.6285 7.58003 38.6727 7.98497 38.841C8.38992 39.0093 8.7358 39.294 8.97881 39.659C9.22182 40.024 9.35101 40.4529 9.35002 40.8914C9.34923 41.4773 9.11613 42.039 8.70185 42.4533C8.28756 42.8676 7.7259 43.1007 7.14002 43.1014ZM15.83 43.1014C15.3919 43.1005 14.964 42.9696 14.6003 42.7254C14.2366 42.4812 13.9535 42.1346 13.7867 41.7295C13.62 41.3244 13.5771 40.8789 13.6636 40.4494C13.75 40.0199 13.9619 39.6258 14.2723 39.3167C14.5828 39.0076 14.9779 38.7975 15.4078 38.713C15.8377 38.6285 16.2829 38.6734 16.6873 38.842C17.0916 39.0105 17.4369 39.2952 17.6795 39.66C17.9221 40.0248 18.051 40.4534 18.05 40.8914C18.0496 41.1824 17.9919 41.4704 17.88 41.739C17.7682 42.0076 17.6045 42.2515 17.3983 42.4568C17.1921 42.6621 16.9475 42.8247 16.6784 42.9353C16.4092 43.0459 16.121 43.1024 15.83 43.1014ZM24.51 43.1014C24.0719 43.1005 23.644 42.9696 23.2803 42.7254C22.9166 42.4812 22.6335 42.1346 22.4667 41.7295C22.3 41.3244 22.2571 40.8789 22.3436 40.4494C22.43 40.0199 22.6419 39.6258 22.9523 39.3167C23.2628 39.0076 23.6579 38.7975 24.0878 38.713C24.5177 38.6285 24.9629 38.6734 25.3673 38.842C25.7716 39.0105 26.1169 39.2952 26.3595 39.66C26.6021 40.0248 26.731 40.4534 26.73 40.8914C26.7314 41.1829 26.6748 41.4717 26.5636 41.7411C26.4523 42.0105 26.2887 42.2551 26.0822 42.4607C25.8756 42.6663 25.6303 42.8288 25.3604 42.9388C25.0905 43.0488 24.8014 43.1041 24.51 43.1014ZM57.77 41.9214H37.84C37.5668 41.9214 37.3049 41.8129 37.1117 41.6198C36.9185 41.4266 36.81 41.1646 36.81 40.8914C36.81 40.6183 36.9185 40.3563 37.1117 40.1631C37.3049 39.97 37.5668 39.8614 37.84 39.8614H57.78C58.0532 39.8628 58.3146 39.9726 58.5069 40.1667C58.6991 40.3608 58.8063 40.6233 58.805 40.8964C58.8037 41.1696 58.6939 41.4311 58.4998 41.6233C58.3057 41.8155 58.0432 41.9228 57.77 41.9214Z" fill="white"/>
<path d="M20.9404 0H43.0504V10.95H20.9404V0Z" fill="white"/>
<path d="M43.4897 13.1484H20.5097L3.71973 33.7984H60.2797L43.4897 13.1484Z" fill="white"/>
</g>
<defs>
<clipPath id="clip0_440_5193">
<rect width="63.99" height="63.59" fill="white"/>
</clipPath>
</defs>
</svg>
