<svg xmlns="http://www.w3.org/2000/svg" width="63.99" height="63.59" viewBox="0 0 63.99 63.59">
  <g id="cooker" transform="translate(0 -0.199)">
    <path id="Path_160960" data-name="Path 160960" d="M45.52,51.31a1.23,1.23,0,0,0-.83-2.14,1.216,1.216,0,0,0-.83.32c-3.14,2.87-1.45,5.75-.34,7.65,1.2,2.06,1.72,3.11.29,4.56a1.176,1.176,0,0,0-.35.87,1.2,1.2,0,0,0,.37.87,1.232,1.232,0,0,0,1.74-.02c2.8-2.86,1.23-5.56.08-7.53-1.22-2.06-1.73-3.12-.13-4.58Z"/>
    <path id="Path_160961" data-name="Path 160961" d="M32.93,51.31a1.23,1.23,0,0,0-.83-2.14,1.216,1.216,0,0,0-.83.32c-3.14,2.87-1.45,5.75-.34,7.65,1.2,2.06,1.72,3.11.29,4.56a1.176,1.176,0,0,0-.35.87,1.2,1.2,0,0,0,.37.87,1.232,1.232,0,0,0,1.74-.02c2.8-2.86,1.23-5.56.08-7.53-1.22-2.06-1.73-3.12-.13-4.58Z"/>
    <path id="Path_160962" data-name="Path 160962" d="M20.35,51.31a1.23,1.23,0,0,0-.83-2.14,1.216,1.216,0,0,0-.83.32c-3.14,2.87-1.45,5.75-.34,7.65,1.2,2.06,1.72,3.11.29,4.56a1.176,1.176,0,0,0-.35.87,1.2,1.2,0,0,0,.37.87,1.232,1.232,0,0,0,1.74-.02c2.8-2.86,1.23-5.56.08-7.53-1.22-2.06-1.73-3.12-.13-4.58Z"/>
    <path id="Path_160963" data-name="Path 160963" d="M62.68,35.64H1.33A1.321,1.321,0,0,0,0,36.96v8.26a1.323,1.323,0,0,0,1.33,1.33H62.67a1.321,1.321,0,0,0,1.32-1.33V36.96A1.3,1.3,0,0,0,62.68,35.64ZM7.14,43.3a2.215,2.215,0,1,1,2.21-2.21A2.213,2.213,0,0,1,7.14,43.3Zm8.69,0a2.215,2.215,0,1,1,2.22-2.21A2.213,2.213,0,0,1,15.83,43.3Zm8.68,0a2.215,2.215,0,1,1,2.22-2.21A2.2,2.2,0,0,1,24.51,43.3Zm33.26-1.18H37.84a1.03,1.03,0,0,1,0-2.06H57.78a1.03,1.03,0,1,1-.01,2.06Z"/>
    <path id="Path_160964" data-name="Path 160964" d="M20.94.2H43.05V11.15H20.94Z"/>
    <path id="Path_160965" data-name="Path 160965" d="M43.49,13.35H20.51L3.72,34H60.28Z"/>
  </g>
</svg>
