<svg width="24" height="24" viewBox="0 0 24 24" fill="none" xmlns="http://www.w3.org/2000/svg">
<path fill-rule="evenodd" clip-rule="evenodd" d="M6.65477 6.05408H20.9479V11.4197H3.00099V6.05408H4.94987V2.51882C4.94987 1.85078 5.21525 1.2101 5.68762 0.737727C6.15999 0.265355 6.80067 0 7.4687 0C8.13674 0 8.77741 0.265355 9.24978 0.737727C9.72216 1.2101 9.98753 1.85078 9.98753 2.51882V3.77132C9.98753 3.99741 9.89772 4.21423 9.73785 4.37409C9.57799 4.53396 9.36116 4.62378 9.13508 4.62378C8.909 4.62378 8.69217 4.53396 8.53231 4.37409C8.37244 4.21423 8.28263 3.99741 8.28263 3.77132V2.51882C8.28643 2.40974 8.26823 2.30103 8.22912 2.19913C8.19 2.09724 8.13077 2.00426 8.05495 1.92575C7.97913 1.84725 7.88828 1.78482 7.78781 1.74217C7.68735 1.69953 7.57933 1.67754 7.47018 1.67754C7.36104 1.67754 7.25302 1.69953 7.15255 1.74217C7.05208 1.78482 6.96123 1.84725 6.88541 1.92575C6.8096 2.00426 6.75036 2.09724 6.71125 2.19913C6.67213 2.30103 6.65393 2.40974 6.65774 2.51882L6.65477 6.05408ZM3 12.7048H20.9479V24H3.00099L3 12.7048ZM8.64416 15.4587H15.3037C15.5298 15.4587 15.7467 15.3689 15.9065 15.209C16.0664 15.0491 16.1562 14.8323 16.1562 14.6062C16.1562 14.3802 16.0664 14.1633 15.9065 14.0035C15.7467 13.8436 15.5298 13.7538 15.3037 13.7538H8.64416C8.41807 13.7538 8.20125 13.8436 8.04138 14.0035C7.88152 14.1633 7.7917 14.3802 7.7917 14.6062C7.7917 14.8323 7.88152 15.0491 8.04138 15.209C8.20125 15.3689 8.41807 15.4587 8.64416 15.4587Z" fill="white"/>
</svg>
